<svg width="68" height="68" viewBox="0 0 68 68" fill="none" xmlns="http://www.w3.org/2000/svg">
<path d="M43.5547 47.0447C44.1356 47.5884 44.9087 47.8791 45.7039 47.8527C46.4992 47.8264 47.2513 47.4853 47.795 46.9043C48.3387 46.3234 48.6293 45.5503 48.603 44.7551C48.5767 43.9599 48.2355 43.2077 47.6546 42.664L38.163 33.7809L47.0462 24.2893C47.5899 23.7084 47.8805 22.9353 47.8542 22.1401C47.8278 21.3449 47.4867 20.5927 46.9058 20.049C46.3248 19.5053 45.5517 19.2147 44.7565 19.241C43.9613 19.2673 43.2091 19.6085 42.6655 20.1894L33.7823 29.681L24.2907 20.7978C23.7098 20.2542 22.9367 19.9635 22.1415 19.9898C21.3463 20.0162 20.5941 20.3573 20.0504 20.9383C19.5067 21.5192 19.2161 22.2923 19.2424 23.0875C19.2688 23.8827 19.6099 24.6349 20.1908 25.1786L29.6824 34.0617L20.7993 43.5533C20.2556 44.1342 19.9649 44.9073 19.9913 45.7025C20.0176 46.4977 20.3588 47.2499 20.9397 47.7936C21.5206 48.3373 22.2937 48.6279 23.0889 48.6016C23.8841 48.5753 24.6363 48.2341 25.18 47.6532L34.0631 38.1616L43.5547 47.0447Z" fill="white"/>
</svg>
